# Blender 4.1.1
# www.blender.org
mtllib front_car.mtl
o Car
v -0.349491 0.134497 1.000585
v -0.349491 0.993933 1.000585
v 0.000000 0.134497 1.000585
v 0.000000 0.993933 1.000585
v -0.349491 0.134497 0.892405
v -0.349491 0.993933 0.892404
v 0.000000 0.134497 0.892404
v 0.000000 0.993933 0.892405
v -0.349491 -0.089976 0.892405
v -0.349491 -0.089976 1.000585
v 0.000000 -0.089976 1.000585
v 0.000000 -0.089976 0.892404
v 0.349491 0.993933 0.892405
v 0.349491 0.993933 1.000585
v 0.349491 0.134497 1.000585
v 0.349491 0.134497 0.892404
v -0.349491 0.134497 0.000000
v -0.349491 0.993933 0.000000
v 0.000000 0.134497 0.000000
v 0.000000 0.993933 0.000000
v 0.349491 0.134497 0.000000
v 0.349491 0.993933 0.000000
v -0.349491 0.134497 -1.000585
v -0.349491 0.993933 -1.000585
v 0.000000 0.134497 -1.000585
v 0.000000 0.993933 -1.000585
v -0.349491 0.134497 -0.892405
v -0.349491 0.993933 -0.892404
v 0.000000 0.134497 -0.892404
v 0.000000 0.993933 -0.892405
v -0.349491 -0.089976 -0.892405
v -0.349491 -0.089976 -1.000585
v 0.000000 -0.089976 -1.000585
v 0.000000 -0.089976 -0.892404
v 0.349491 0.993933 -0.892405
v 0.349491 0.993933 -1.000585
v 0.349491 0.134497 -1.000585
v 0.349491 0.134497 -0.892404
vn -0.0000 -0.0000 1.0000
vn -0.0000 1.0000 -0.0000
vn -0.0000 -1.0000 -0.0000
vn -1.0000 -0.0000 -0.0000
vn 1.0000 -0.0000 -0.0000
vn -0.0000 -0.0000 -1.0000
vt 0.375000 0.750000
vt 0.625000 0.750000
vt 0.625000 1.000000
vt 0.375000 1.000000
vt 0.625000 0.666667
vt 0.875000 0.666667
vt 0.875000 0.750000
vt 0.625000 0.625000
vt 0.875000 0.625000
vt 0.125000 0.625000
vt 0.375000 0.625000
vt 0.375000 0.666667
vt 0.125000 0.666667
vt 0.375000 0.000000
vt 0.625000 0.000000
vt 0.625000 0.083333
vt 0.375000 0.083333
vt 0.125000 0.750000
vt 0.625000 0.125000
vt 0.375000 0.125000
s 0
usemtl Remap1_NoAO
f 3/1/1 4/2/1 2/3/1 1/4/1
f 8/5/2 6/6/2 2/7/2 4/2/2
f 20/8/2 18/9/2 6/6/2 8/5/2
f 17/10/3 19/11/3 7/12/3 5/13/3
f 4/2/1 3/1/1 15/1/1 14/2/1
f 1/14/4 2/15/4 6/16/4 5/17/4
f 9/13/3 12/12/3 11/1/3 10/18/3
f 1/14/4 5/17/4 9/17/4 10/14/4
f 7/12/5 3/1/5 11/1/5 12/12/5
f 5/13/6 7/12/6 12/12/6 9/13/6
f 3/1/1 1/4/1 10/4/1 11/1/1
f 16/12/5 13/5/5 14/2/5 15/1/5
f 21/11/5 22/8/5 13/5/5 16/12/5
f 3/1/3 7/12/3 16/12/3 15/1/3
f 20/8/2 8/5/2 13/5/2 22/8/2
f 8/5/2 4/2/2 14/2/2 13/5/2
f 7/12/3 19/11/3 21/11/3 16/12/3
f 5/17/4 6/16/4 18/19/4 17/20/4
f 25/1/6 23/4/6 24/3/6 26/2/6
f 30/5/2 26/2/2 24/7/2 28/6/2
f 20/8/2 30/5/2 28/6/2 18/9/2
f 17/10/3 27/13/3 29/12/3 19/11/3
f 26/2/6 36/2/6 37/1/6 25/1/6
f 23/14/4 27/17/4 28/16/4 24/15/4
f 31/13/3 32/18/3 33/1/3 34/12/3
f 23/14/4 32/14/4 31/17/4 27/17/4
f 29/12/5 34/12/5 33/1/5 25/1/5
f 27/13/1 31/13/1 34/12/1 29/12/1
f 25/1/6 33/1/6 32/4/6 23/4/6
f 38/12/5 37/1/5 36/2/5 35/5/5
f 21/11/5 38/12/5 35/5/5 22/8/5
f 25/1/3 37/1/3 38/12/3 29/12/3
f 20/8/2 22/8/2 35/5/2 30/5/2
f 30/5/2 35/5/2 36/2/2 26/2/2
f 29/12/3 38/12/3 21/11/3 19/11/3
f 27/17/4 17/20/4 18/19/4 28/16/4
